<?xml version="1.0" encoding="UTF-8" standalone="no"?>
<svg width="280px" height="77px" viewBox="0 0 280 77" version="1.1" xmlns="http://www.w3.org/2000/svg" xmlns:xlink="http://www.w3.org/1999/xlink">
    <!-- Generator: Sketch 3.8.3 (29802) - http://www.bohemiancoding.com/sketch -->
    <title>Artboard 1</title>
    <desc>Created with Sketch.</desc>
    <defs>
        <polygon id="path-1" points="0 64 260.291 64 260.291 0.789 0 0.789"></polygon>
    </defs>
    <g id="Page-1" stroke="none" stroke-width="1" fill="none" fill-rule="evenodd">
        <g id="Artboard-1">
            <g id="Page-1" transform="translate(10.000000, 6.000000)">
                <polygon id="Fill-1" fill="#FFFFFF" points="59.8652 20.0283 64.3632 20.0283 58.5772 36.0483 54.1602 36.0483 48.4162 20.0283 53.1182 20.0283 56.4552 31.8443"></polygon>
                <g id="Group-25" transform="translate(0.000000, 0.210900)">
                    <path d="M76.7451,31.562 C77.4011,30.691 77.7291,29.454 77.7291,27.85 C77.7291,26.244 77.4011,25.009 76.7451,24.143 C76.0881,23.278 75.1471,22.845 73.9231,22.845 C72.6981,22.845 71.7551,23.278 71.0941,24.143 C70.4331,25.009 70.1011,26.244 70.1011,27.85 C70.1011,29.454 70.4331,30.691 71.0941,31.562 C71.7551,32.433 72.6981,32.868 73.9231,32.868 C75.1471,32.868 76.0881,32.433 76.7451,31.562 L76.7451,31.562 Z M80.0961,33.877 C78.7441,35.547 76.6911,36.381 73.9381,36.381 C71.1841,36.381 69.1321,35.547 67.7791,33.877 C66.4281,32.208 65.7511,30.199 65.7511,27.85 C65.7511,25.539 66.4281,23.537 67.7791,21.843 C69.1321,20.149 71.1841,19.303 73.9381,19.303 C76.6911,19.303 78.7441,20.149 80.0961,21.843 C81.4481,23.537 82.1241,25.539 82.1241,27.85 C82.1241,30.199 81.4481,32.208 80.0961,33.877 L80.0961,33.877 Z" id="Fill-2" fill="#FFFFFF"></path>
                    <path d="M83.4765,22.9473 L83.4765,19.9643 L85.7095,19.9643 L85.7095,15.4963 L89.8555,15.4963 L89.8555,19.9643 L92.4565,19.9643 L92.4565,22.9473 L89.8555,22.9473 L89.8555,31.4133 C89.8555,32.0703 89.9385,32.4783 90.1055,32.6403 C90.2715,32.8023 90.7815,32.8833 91.6335,32.8833 C91.7605,32.8833 91.8955,32.8813 92.0385,32.8763 C92.1805,32.8713 92.3195,32.8633 92.4565,32.8533 L92.4565,35.9843 L90.4725,36.0573 C88.4935,36.1253 87.1405,35.7833 86.4165,35.0293 C85.9455,34.5493 85.7095,33.8083 85.7095,32.8093 L85.7095,22.9473 L83.4765,22.9473 Z" id="Fill-4" fill="#FFFFFF"></path>
                    <path d="M104.0532,28.0474 C103.7852,28.2144 103.5142,28.3484 103.2412,28.4514 C102.9682,28.5544 102.5932,28.6504 102.1162,28.7384 L101.1632,28.9154 C100.2682,29.0714 99.6262,29.2624 99.2372,29.4874 C98.5782,29.8704 98.2472,30.4624 98.2472,31.2664 C98.2472,31.9814 98.4492,32.4994 98.8522,32.8164 C99.2552,33.1354 99.7452,33.2954 100.3222,33.2954 C101.2372,33.2954 102.0812,33.0304 102.8512,32.5004 C103.6222,31.9714 104.0232,31.0074 104.0532,29.6054 L104.0532,28.0474 Z M101.4912,26.0924 C102.2712,25.9954 102.8292,25.8724 103.1652,25.7254 C103.7672,25.4704 104.0682,25.0734 104.0682,24.5354 C104.0682,23.8784 103.8372,23.4254 103.3742,23.1754 C102.9132,22.9254 102.2352,22.8004 101.3422,22.8004 C100.3382,22.8004 99.6282,23.0464 99.2112,23.5354 C98.9132,23.8984 98.7142,24.3884 98.6152,25.0054 L94.5732,25.0054 C94.6622,23.6044 95.0552,22.4534 95.7542,21.5504 C96.8662,20.1404 98.7752,19.4344 101.4822,19.4344 C103.2432,19.4344 104.8072,19.7824 106.1762,20.4784 C107.5432,21.1734 108.2272,22.4864 108.2272,24.4174 L108.2272,31.7654 C108.2272,32.2754 108.2372,32.8924 108.2562,33.6184 C108.2862,34.1664 108.3692,34.5394 108.5062,34.7344 C108.6442,34.9304 108.8492,35.0924 109.1232,35.2194 L109.1232,35.8374 L104.5682,35.8374 C104.4402,35.5134 104.3512,35.2104 104.3022,34.9254 C104.2542,34.6414 104.2152,34.3184 104.1852,33.9554 C103.6042,34.5834 102.9342,35.1174 102.1752,35.5584 C101.2682,36.0784 100.2432,36.3374 99.0992,36.3374 C97.6412,36.3374 96.4362,35.9224 95.4862,35.0944 C94.5352,34.2674 94.0582,33.0934 94.0582,31.5744 C94.0582,29.6054 94.8242,28.1794 96.3532,27.2974 C97.1922,26.8184 98.4262,26.4754 100.0552,26.2694 L101.4912,26.0924 Z" id="Fill-6" fill="#FFFFFF"></path>
                    <mask id="mask-2" fill="white">
                        <use xlink:href="#path-1"></use>
                    </mask>
                    <g id="Clip-9"></g>
                    <path d="M111.946,35.837 L116.193,35.837 L116.193,19.817 L111.946,19.817 L111.946,35.837 Z M111.946,17.907 L116.193,17.907 L116.193,14.041 L111.946,14.041 L111.946,17.907 Z" id="Fill-8" fill="#FFFFFF" mask="url(#mask-2)"></path>
                    <path d="M133.1684,20.7363 C134.2164,21.6023 134.7414,23.0413 134.7414,25.0493 L134.7414,35.8373 L130.4504,35.8373 L130.4504,26.0923 C130.4504,25.2503 130.3384,24.6033 130.1144,24.1533 C129.7064,23.3293 128.9274,22.9183 127.7794,22.9183 C126.3694,22.9183 125.4014,23.5203 124.8764,24.7263 C124.6044,25.3623 124.4674,26.1753 124.4674,27.1663 L124.4674,35.8373 L120.2794,35.8373 L120.2794,19.8463 L124.3364,19.8463 L124.3364,22.1833 C124.8724,21.3603 125.3804,20.7673 125.8574,20.4053 C126.7154,19.7583 127.8044,19.4343 129.1214,19.4343 C130.7694,19.4343 132.1194,19.8683 133.1684,20.7363" id="Fill-10" fill="#FFFFFF" mask="url(#mask-2)"></path>
                    <path d="M136.9902,22.9473 L136.9902,19.9643 L139.2242,19.9643 L139.2242,15.4963 L143.3692,15.4963 L143.3692,19.9643 L145.9702,19.9643 L145.9702,22.9473 L143.3692,22.9473 L143.3692,31.4133 C143.3692,32.0703 143.4522,32.4783 143.6192,32.6403 C143.7852,32.8023 144.2952,32.8833 145.1472,32.8833 C145.2742,32.8833 145.4092,32.8813 145.5512,32.8763 C145.6942,32.8713 145.8332,32.8633 145.9702,32.8533 L145.9702,35.9843 L143.9862,36.0573 C142.0072,36.1253 140.6542,35.7833 139.9302,35.0293 C139.4592,34.5493 139.2242,33.8083 139.2242,32.8093 L139.2242,22.9473 L136.9902,22.9473 Z" id="Fill-11" fill="#FFFFFF" mask="url(#mask-2)"></path>
                    <path d="M152.833,23.7598 C152.241,24.3698 151.869,25.1968 151.717,26.2398 L158.934,26.2398 C158.857,25.1278 158.486,24.2838 157.817,23.7088 C157.15,23.1328 156.322,22.8448 155.334,22.8448 C154.258,22.8448 153.425,23.1498 152.833,23.7598 M159.1,20.1418 C160.217,20.6418 161.14,21.4318 161.868,22.5108 C162.524,23.4628 162.949,24.5668 163.145,25.8228 C163.257,26.5598 163.303,27.6188 163.282,29.0028 L151.614,29.0028 C151.68,30.6098 152.238,31.7368 153.29,32.3828 C153.93,32.7848 154.699,32.9868 155.6,32.9868 C156.554,32.9868 157.329,32.7398 157.925,32.2508 C158.251,31.9868 158.537,31.6188 158.787,31.1488 L163.063,31.1488 C162.95,32.0988 162.434,33.0648 161.511,34.0438 C160.075,35.6018 158.067,36.3808 155.483,36.3808 C153.352,36.3808 151.471,35.7238 149.841,34.4098 C148.212,33.0958 147.397,30.9578 147.397,27.9958 C147.397,25.2208 148.132,23.0928 149.604,21.6128 C151.074,20.1318 152.984,19.3908 155.332,19.3908 C156.726,19.3908 157.982,19.6408 159.1,20.1418" id="Fill-12" fill="#FFFFFF" mask="url(#mask-2)"></path>
                    <polygon id="Fill-13" fill="#FFFFFF" mask="url(#mask-2)" points="165.49 35.837 169.678 35.837 169.678 14.173 165.49 14.173"></polygon>
                    <path d="M173.822,35.837 L178.07,35.837 L178.07,19.817 L173.822,19.817 L173.822,35.837 Z M173.822,17.907 L178.07,17.907 L178.07,14.041 L173.822,14.041 L173.822,17.907 Z" id="Fill-14" fill="#FFFFFF" mask="url(#mask-2)"></path>
                    <path d="M191.4785,31.2881 C192.1515,30.5491 192.4885,29.3701 192.4885,27.7531 C192.4885,26.2351 192.1675,25.0781 191.5295,24.2851 C190.8895,23.4911 190.0345,23.0951 188.9605,23.0951 C187.4975,23.0951 186.4875,23.7851 185.9315,25.1671 C185.6375,25.9011 185.4925,26.8081 185.4925,27.8861 C185.4925,28.8171 185.6485,29.6451 185.9605,30.3691 C186.5255,31.7221 187.5405,32.3981 189.0045,32.3981 C189.9805,32.3981 190.8055,32.0281 191.4785,31.2881 M190.0515,19.8021 C191.0685,20.2241 191.8915,20.9981 192.5175,22.1241 L192.5175,19.8171 L196.6035,19.8171 L196.6035,35.0151 C196.6035,37.0821 196.2555,38.6391 195.5595,39.6871 C194.3645,41.4901 192.0715,42.3921 188.6815,42.3921 C186.6335,42.3921 184.9625,41.9901 183.6695,41.1861 C182.3765,40.3831 181.6615,39.1831 181.5245,37.5861 L186.0805,37.5861 C186.1975,38.0761 186.3885,38.4291 186.6525,38.6441 C187.1035,39.0261 187.8635,39.2181 188.9315,39.2181 C190.4395,39.2181 191.4495,38.7131 191.9585,37.7031 C192.2915,37.0581 192.4585,35.9701 192.4585,34.4401 L192.4585,33.4121 C192.0565,34.0981 191.6255,34.6131 191.1645,34.9551 C190.3325,35.5931 189.2495,35.9101 187.9175,35.9101 C185.8595,35.9101 184.2155,35.1871 182.9865,33.7431 C181.7565,32.2971 181.1415,30.3401 181.1415,27.8711 C181.1415,25.4901 181.7335,23.4891 182.9175,21.8671 C184.1015,20.2461 185.7795,19.4341 187.9525,19.4341 C188.7545,19.4341 189.4545,19.5571 190.0515,19.8021" id="Fill-15" fill="#FFFFFF" mask="url(#mask-2)"></path>
                    <path d="M204.686,23.7598 C204.094,24.3698 203.722,25.1968 203.569,26.2398 L210.787,26.2398 C210.71,25.1278 210.338,24.2838 209.671,23.7088 C209.003,23.1328 208.175,22.8448 207.187,22.8448 C206.111,22.8448 205.277,23.1498 204.686,23.7598 M210.952,20.1418 C212.069,20.6418 212.992,21.4318 213.721,22.5108 C214.377,23.4628 214.803,24.5668 214.997,25.8228 C215.11,26.5598 215.155,27.6188 215.136,29.0028 L203.467,29.0028 C203.532,30.6098 204.091,31.7368 205.143,32.3828 C205.782,32.7848 206.552,32.9868 207.452,32.9868 C208.406,32.9868 209.181,32.7398 209.778,32.2508 C210.103,31.9868 210.391,31.6188 210.64,31.1488 L214.917,31.1488 C214.804,32.0988 214.286,33.0648 213.364,34.0438 C211.929,35.6018 209.92,36.3808 207.337,36.3808 C205.204,36.3808 203.323,35.7238 201.693,34.4098 C200.064,33.0958 199.249,30.9578 199.249,27.9958 C199.249,25.2208 199.984,23.0928 201.456,21.6128 C202.927,20.1318 204.837,19.3908 207.186,19.3908 C208.579,19.3908 209.835,19.6408 210.952,20.1418" id="Fill-16" fill="#FFFFFF" mask="url(#mask-2)"></path>
                    <path d="M230.1719,20.7363 C231.2209,21.6023 231.7449,23.0413 231.7449,25.0493 L231.7449,35.8373 L227.4539,35.8373 L227.4539,26.0923 C227.4539,25.2503 227.3419,24.6033 227.1169,24.1533 C226.7099,23.3293 225.9319,22.9183 224.7829,22.9183 C223.3729,22.9183 222.4059,23.5203 221.8799,24.7263 C221.6069,25.3623 221.4719,26.1753 221.4719,27.1663 L221.4719,35.8373 L217.2819,35.8373 L217.2819,19.8463 L221.3399,19.8463 L221.3399,22.1833 C221.8769,21.3603 222.3839,20.7673 222.8609,20.4053 C223.7199,19.7583 224.8079,19.4343 226.1249,19.4343 C227.7729,19.4343 229.1229,19.8683 230.1719,20.7363" id="Fill-17" fill="#FFFFFF" mask="url(#mask-2)"></path>
                    <path d="M233.9941,22.9473 L233.9941,19.9643 L236.2271,19.9643 L236.2271,15.4963 L240.3731,15.4963 L240.3731,19.9643 L242.9741,19.9643 L242.9741,22.9473 L240.3731,22.9473 L240.3731,31.4133 C240.3731,32.0703 240.4561,32.4783 240.6231,32.6403 C240.7891,32.8023 241.2991,32.8833 242.1511,32.8833 C242.2781,32.8833 242.4131,32.8813 242.5561,32.8763 C242.6971,32.8713 242.8371,32.8633 242.9741,32.8533 L242.9741,35.9843 L240.9891,36.0573 C239.0101,36.1253 237.6581,35.7833 236.9341,35.0293 C236.4631,34.5493 236.2271,33.8083 236.2271,32.8093 L236.2271,22.9473 L233.9941,22.9473 Z" id="Fill-18" fill="#FFFFFF" mask="url(#mask-2)"></path>
                    <path d="M249.8369,23.7598 C249.2449,24.3698 248.8729,25.1968 248.7209,26.2398 L255.9379,26.2398 C255.8609,25.1278 255.4889,24.2838 254.8219,23.7088 C254.1529,23.1328 253.3259,22.8448 252.3369,22.8448 C251.2619,22.8448 250.4289,23.1498 249.8369,23.7598 M256.1029,20.1418 C257.2199,20.6418 258.1439,21.4318 258.8709,22.5108 C259.5279,23.4628 259.9529,24.5668 260.1489,25.8228 C260.2609,26.5598 260.3069,27.6188 260.2859,29.0028 L248.6179,29.0028 C248.6829,30.6098 249.2409,31.7368 250.2929,32.3828 C250.9329,32.7848 251.7029,32.9868 252.6029,32.9868 C253.5579,32.9868 254.3329,32.7398 254.9289,32.2508 C255.2539,31.9868 255.5419,31.6188 255.7909,31.1488 L260.0679,31.1488 C259.9539,32.0988 259.4369,33.0648 258.5149,34.0438 C257.0789,35.6018 255.0699,36.3808 252.4869,36.3808 C250.3559,36.3808 248.4749,35.7238 246.8449,34.4098 C245.2149,33.0958 244.3999,30.9578 244.3999,27.9958 C244.3999,25.2208 245.1359,23.0928 246.6069,21.6128 C248.0779,20.1318 249.9869,19.3908 252.3359,19.3908 C253.7299,19.3908 254.9859,19.6408 256.1029,20.1418" id="Fill-19" fill="#FFFFFF" mask="url(#mask-2)"></path>
                    <path d="M21.6416,50.6328 L21.6416,29.1018 C20.6786,29.5318 19.5446,29.7788 18.2366,29.7788 L16.5396,29.7788 L6.8366,39.4838 L25.9216,58.5698 L25.9216,52.0058 L23.0166,52.0058 C22.2846,52.0058 21.6416,51.3608 21.6416,50.6328" id="Fill-20" fill="#FFFFFF" mask="url(#mask-2)"></path>
                    <path d="M29.9526,44.1006 C28.3946,44.1006 27.1326,42.8416 27.1326,41.2806 C27.1326,39.7256 28.3946,38.4626 29.9526,38.4626 C31.5106,38.4626 32.7716,39.7256 32.7716,41.2806 C32.7716,42.8416 31.5106,44.1006 29.9526,44.1006 L29.9526,44.1006 Z M36.3086,34.6546 C33.7756,36.5136 30.0166,36.7556 26.8936,33.6406 L24.3876,31.1326 L24.3876,49.2586 L27.2936,49.2586 C28.0256,49.2586 28.6656,49.9006 28.6656,50.6326 L28.6656,54.5096 C29.8426,54.5306 31.7386,54.4056 32.8916,53.5646 C34.5276,52.3746 36.0196,54.4016 34.8346,55.4966 C33.0656,57.1326 30.2116,57.3086 28.6656,57.2726 L28.6656,61.3086 L31.3576,63.9996 L48.5076,46.8536 L36.3086,34.6546 Z" id="Fill-21" fill="#FFFFFF" mask="url(#mask-2)"></path>
                    <path d="M27.6992,9.2339 C33.8642,9.2539 34.1852,0.8009 27.6952,0.7929 L13.5242,0.7889 C14.2382,1.3489 14.9522,2.0019 15.7162,2.7609 L22.1762,9.2219 L27.6992,9.2339 Z" id="Fill-22" fill="#FFFFFF" mask="url(#mask-2)"></path>
                    <path d="M34.8057,25.7324 L13.7727,4.7024 C11.1317,2.0574 9.4107,1.0354 5.8177,0.8514 C5.4167,0.8364 4.9917,0.8244 4.5417,0.8244 L-0.0003,0.8244 L-0.0003,11.4724 L8.6117,11.4724 L12.9877,15.8554 L18.2367,15.8514 C25.5147,15.8514 27.3947,23.0524 24.2317,27.0984 L28.8337,31.7004 C33.1967,36.0594 39.3957,30.3254 34.8057,25.7324" id="Fill-23" fill="#FFFFFF" mask="url(#mask-2)"></path>
                    <path d="M18.2363,27.0352 C24.4203,27.0352 24.7463,18.5942 18.2363,18.5942 L0.0003,18.5942 L0.0003,27.0352 L18.2363,27.0352 Z" id="Fill-24" fill="#FFFFFF" mask="url(#mask-2)"></path>
                </g>
            </g>
        </g>
    </g>
</svg>